# xmcd CD database file
#
# Track frame offsets:
#	150
#	30782
#	53617
#	75710
#	96040
#	126590
#	155100
#
# Disc length: 2490 seconds
#
# Revision: 0
# Processed by: cddbd v1.5.1PL2 Copyright (c) Steve Scherf et al.
# Submitted via: CDex 1.60beta1
#
DISCID=4e09b807
DTITLE=Seiji Tada - THE GIG
DYEAR=1997
DGENRE=Jazz
TTITLE0=THE GIG
TTITLE1=THE LADY SINGS THE BLUES
TTITLE2=WIG WISE
TTITLE3=FONTANA DI TREVI
TTITLE4=SOLITAIRE
TTITLE5=FIVE
TTITLE6=PERSPECTIVE
EXTD=YEAR: 1997
EXTT0=
EXTT1=
EXTT2=
EXTT3=
EXTT4=
EXTT5=
EXTT6=
PLAYORDER=
